<mxfile host="65bd71144e">
    <diagram id="LgAWaFFzpxfjpQYhjvyU" name="ページ1">
        <mxGraphModel dx="1122" dy="818" grid="1" gridSize="10" guides="1" tooltips="1" connect="1" arrows="1" fold="1" page="1" pageScale="1" pageWidth="827" pageHeight="1169" math="0" shadow="0">
            <root>
                <mxCell id="0"/>
                <mxCell id="1" parent="0"/>
                <mxCell id="2" value="" style="endArrow=none;html=1;" edge="1" parent="1">
                    <mxGeometry width="50" height="50" relative="1" as="geometry">
                        <mxPoint y="560" as="sourcePoint"/>
                        <mxPoint x="800" y="160" as="targetPoint"/>
                    </mxGeometry>
                </mxCell>
                <mxCell id="4" value="" style="shape=crossbar;whiteSpace=wrap;html=1;rounded=1;direction=south;" vertex="1" parent="1">
                    <mxGeometry x="80" y="240" width="20" height="120" as="geometry"/>
                </mxCell>
                <mxCell id="7" value="" style="shape=waypoint;sketch=0;fillStyle=solid;size=6;pointerEvents=1;points=[];fillColor=none;resizable=0;rotatable=0;perimeter=centerPerimeter;snapToPoint=1;" vertex="1" parent="1">
                    <mxGeometry x="220" y="305" width="40" height="40" as="geometry"/>
                </mxCell>
                <mxCell id="8" value="" style="endArrow=none;html=1;" edge="1" parent="1">
                    <mxGeometry width="50" height="50" relative="1" as="geometry">
                        <mxPoint y="320" as="sourcePoint"/>
                        <mxPoint x="800" y="720" as="targetPoint"/>
                    </mxGeometry>
                </mxCell>
                <mxCell id="9" value="O" style="text;html=1;align=center;verticalAlign=middle;resizable=0;points=[];autosize=1;strokeColor=none;fillColor=none;" vertex="1" parent="1">
                    <mxGeometry x="225" y="460" width="30" height="20" as="geometry"/>
                </mxCell>
                <mxCell id="10" value="x" style="text;html=1;align=center;verticalAlign=middle;resizable=0;points=[];autosize=1;strokeColor=none;fillColor=none;fontSize=24;" vertex="1" parent="1">
                    <mxGeometry x="5" y="560" width="30" height="30" as="geometry"/>
                </mxCell>
                <mxCell id="11" value="y" style="text;html=1;align=center;verticalAlign=middle;resizable=0;points=[];autosize=1;strokeColor=none;fillColor=none;fontSize=24;" vertex="1" parent="1">
                    <mxGeometry x="5" y="345" width="30" height="30" as="geometry"/>
                </mxCell>
                <mxCell id="14" value="" style="ellipse;whiteSpace=wrap;html=1;aspect=fixed;fontSize=24;fillColor=none;" vertex="1" parent="1">
                    <mxGeometry x="120" y="200" width="240" height="240" as="geometry"/>
                </mxCell>
            </root>
        </mxGraphModel>
    </diagram>
</mxfile>